<svg xmlns="http://www.w3.org/2000/svg" viewBox="0 0 359.9 409.8">
	<path d="M282.4,409.8c-68.3,0-136.5,0-204.8,0c-0.3-0.2-0.7-0.5-1-0.5c-17.7-3.7-28.6-15.4-30.3-33.4c-2.1-22.8-3.8-45.7-5.8-68.5c-2.3-27.5-4.6-55-6.9-82.5c-2-24.6-4.1-49.1-6.1-73.7c-0.8-10.2-1.6-20.4-2.5-30.8c103.4,0,206.5,0,309.7,0c0.1,0.6,0.2,0.9,0.2,1.3c-2.9,35.2-5.8,70.4-8.7,105.6c-4,48.1-8,96.1-11.9,144.2c-0.9,10.5-3.4,20.1-11.2,27.8C297.3,405,290.1,407.9,282.4,409.8z M96,158.7c0.1,0,0.1,0,0.2,0c1.1,18,2.1,35.9,3.3,53.9c2.8,45.5,5.7,90.9,8.5,136.4c0.5,7.8,5.5,13,12.4,12.8c7.1-0.3,11.9-5.9,11.5-13.9c-0.5-9.8-1.2-19.7-1.8-29.5c-2-32.8-4.1-65.7-6.1-98.5c-1.3-21.4-2.6-42.8-4-64.2c-0.4-6.5-5.2-11.1-11.3-11.3c-6-0.3-11.2,3.8-12.4,9.7C96,155.5,96.1,157.1,96,158.7z M264,157.3c0.3-7-4.2-12.7-11.2-13.1c-6.6-0.4-12.3,4.7-12.8,11.6c-1.4,21.9-2.7,43.9-4.1,65.8c-1.7,27.9-3.5,55.9-5.3,83.8c-0.9,14.5-1.9,29-2.6,43.5c-0.3,7.2,4.9,12.5,11.6,12.7c6.6,0.2,11.8-4.7,12.3-11.6c0.3-4.4,0.6-8.8,0.8-13.2c1.7-27.5,3.4-55.1,5.1-82.6C259.9,222.4,261.9,190.5,264,157.3z M192,253.4c0-31.3,0-62.7,0-94c0-9.6-4.4-15.2-12-15.2c-7.6,0-12,5.6-12,15.2c0,62.4,0,124.8,0,187.2c0,1.3-0.1,2.7,0.1,4c0.6,5.1,3.2,8.7,8,10.5c8.2,2.9,15.9-3.1,15.9-12.4C192,316.8,192,285.1,192,253.4z"/>
	<path d="M0,68.2c1.6-3.5,2.8-7.2,5-10.3c4.9-7,12.1-9.7,20.4-9.7c21.9,0,43.7,0,65.6,0c1.5,0,2.9,0,5.3,0c0-5.3-0.5-10.5,0.1-15.5c2.2-19,16.3-32.2,35.5-32.4c32.1-0.4,64.3-0.4,96.4,0c20.4,0.3,35.1,15.6,35.7,36c0.1,3.7,0,7.5,0,11.8c1.5,0,2.9,0,4.3,0c22.3,0,44.5-0.1,66.8,0c17.6,0.1,29,15.8,23.3,32c-3.2,9.1-10,14.2-19.5,15.6c-1.8,0.3-3.7,0.3-5.6,0.3c-102.2,0-204.5,0-306.7,0c-10.8,0-19.2-3.9-24.2-13.8c-1-2-1.6-4.2-2.4-6.3C0,73.5,0,70.8,0,68.2z M120.1,47.9c40.2,0,80,0,119.9,0c0-3.6,0-6.9,0-10.2c-0.1-8.8-4.8-13.5-13.7-13.5c-13.6,0-27.2,0-40.8,0c-17.6,0-35.2,0-52.7,0c-7.2,0-12.3,4.5-12.7,11.1C119.9,39.4,120.1,43.5,120.1,47.9z"/>
</svg>