<svg xmlns="http://www.w3.org/2000/svg" viewBox="0 0 384.1 384.1">
	<path d="M0,348.1c0-83.5,0-167,0-250.5c0.2-0.3,0.5-0.6,0.5-1c2.3-18,18.9-35.3,42.9-35.1c64.9,0.3,129.7,0.1,194.6,0.1c1.3,0,2.6,0,4.8,0c-1.6,1.7-2.6,2.8-3.6,3.8c-32.5,32.5-65,65.1-97.6,97.5c-4.9,4.9-8.4,10.4-10.6,17c-4.7,14.6-9.8,29.1-14.5,43.7c-1.2,3.6-2.2,7.5-2.4,11.3c-1.1,23.7,21.6,40.6,44.6,33.3c15-4.8,29.8-10,44.8-14.8c7.1-2.3,13-6.1,18.2-11.4c32.4-32.5,64.8-64.9,97.3-97.3c1-1,2-1.9,3.5-3.3c0,2.5,0,4,0,5.5c0,44,0,88,0,132c0,21.4,0.1,42.7,0,64.1c-0.1,18.2-11.8,33.9-28.8,39.2c-2.4,0.7-4.8,1.3-7.1,2c-83.5,0-167,0-250.5,0c-0.6-0.2-1.1-0.5-1.7-0.7c-14.4-2.7-24.7-10.8-30.7-24.1C2,355.8,1.2,351.9,0,348.1z"/>
	<path d="M296,40.6c15.9,15.9,31.6,31.6,47.6,47.5c-0.6,0.6-1.5,1.6-2.4,2.6c-45.2,45.2-90.4,90.5-135.8,135.6c-2.5,2.4-5.8,4.4-9.1,5.5c-14.3,5-28.9,9.6-43.3,14.6c-4.9,1.7-9.4,1.5-13.1-2.3c-3.8-3.8-3.8-8.3-2.1-13.2c5-14.7,9.8-29.6,14.9-44.3c0.9-2.5,2.4-5,4.2-6.9c45.6-45.7,91.3-91.4,137-137.1C294.6,41.9,295.4,41.2,296,40.6z"/>
	<path d="M360.4,71.5c-16-16-31.6-31.7-48.4-48.5c2.1-1.7,4.7-3.5,7.1-5.7c4.1-3.8,7.9-8,12-11.9c7.3-6.9,18.1-7.3,25.4-0.5c7.8,7.3,15.4,15,22.7,22.8c6.1,6.5,6.4,16,1.3,23.1c-0.9,1.2-1.9,2.3-2.9,3.4C371.8,60.1,366,65.9,360.4,71.5z"/>
</svg>